<?xml version="1.0" encoding="UTF-8" standalone="yes"?>
<!-- Created with sK1/UniConvertor (http://sk1project.org/) -->
<svg xmlns="http://www.w3.org/2000/svg" xmlns:xlink="http://www.w3.org/1999/xlink"
  width="409.6pt" height="409.6pt" viewBox="0 0 409.6 409.6"
  fill-rule="evenodd">
<g>
<path style="stroke:none; fill:#ffffff" fill-opacity="0" d="M 0 0L 0 260.8L 0.8 260.8C 1.24414 207.149 45.5511 171.846 72.2463 130.4C 94.6152 95.6712 108.706 55.5965 148.8 37.0475C 202.802 12.0641 268.418 34.1647 295.353 88C 308.075 113.428 308 140.294 308 168C 352.199 157.355 406.786 194.037 408.8 240.8L 409.6 240.8L 409.6 0L 0 0z"/>
<path style="stroke:none; fill:#f7d2b0" d="M 184 26.4L 184 27.2L 187.2 27.2C 185.995 26.6536 185.348 26.5393 184 26.4z"/>
<path style="stroke:none; fill:#f3b985" d="M 187.2 26.4L 187.2 27.2L 191.2 27.2C 189.785 26.5768 188.771 26.4701 187.2 26.4z"/>
<path style="stroke:none; fill:#efa75f" d="M 129.6 48L 129.6 48.8C 136.729 48.9472 145.391 49.8395 151.999 52.6834C 155.054 53.9978 158.49 57.1671 156.762 60.7846C 155.598 63.2242 153.059 64.6925 150.4 64.6055C 146.369 64.4738 142.37 62.51 138.4 61.8598C 131.605 60.747 123.502 62.2938 117.6 58.4C 95.8016 82.0656 83.3984 113.466 65.3247 140C 51.677 160.037 33.6921 176.826 21.1598 197.6C 1.39282 230.366 -6.10847 273.527 5.62284 310.4C 9.25072 321.802 15.3953 331.498 21.6 341.6C 27.7583 342.21 34.2107 348.38 40 350.858C 56.4351 357.892 86.3664 366.134 102.397 354.569C 120.258 341.682 109.781 323.209 104.82 307.2C 100.682 293.845 98.9016 280.294 100.905 266.4C 107.274 222.22 144.159 188.048 185.6 175.22C 200.045 170.749 214.053 170.664 228.8 168.8L 228.8 168C 223.745 165.994 215.306 158.294 224.812 155.026C 232.745 152.298 240.12 162.95 246.4 165.506C 249.293 166.683 253.231 164.773 256 163.835C 291.568 151.787 285.666 100.087 274.84 72.8C 271.586 64.5987 264.338 56.3483 262.4 48C 230.586 30.2879 197.955 19.6327 161.6 31.7395C 149.967 35.6134 140.194 42.102 129.6 48z"/>
<path style="stroke:none; fill:#f6cca3" d="M 203.2 26.4L 203.2 27.2L 205.6 27.2C 204.602 26.6521 204.362 26.601 203.2 26.4z"/>
<path style="stroke:none; fill:#fbede0" d="M 205.6 26.4L 205.6 27.2L 208.8 27.2C 207.595 26.6536 206.948 26.5393 205.6 26.4z"/>
<path style="stroke:none; fill:#f8dabb" d="M 178.934 27.4666C 178.578 27.8223 179.422 27.7777 179.466 27.7334C 179.822 27.3779 178.978 27.4222 178.934 27.4666z"/>
<path style="stroke:none; fill:#f3b985" d="M 180.534 27.4666C 180.178 27.8223 181.022 27.7777 181.066 27.7334C 181.422 27.3779 180.578 27.4222 180.534 27.4666z"/>
<path style="stroke:none; fill:#f6cca3" d="M 210.4 27.2L 210.4 28L 212.8 28C 211.802 27.4522 211.562 27.401 210.4 27.2z"/>
<path style="stroke:none; fill:#f8dabb" d="M 173.6 28L 173.6 28.8L 176 28.8C 175.002 28.2521 174.762 28.201 173.6 28M 216 28L 216 28.8L 218.4 28.8C 217.402 28.2522 217.162 28.201 216 28z"/>
<path style="stroke:none; fill:#f6cca3" d="M 170.934 29.0667C 170.578 29.4224 171.422 29.3777 171.466 29.3334C 171.822 28.9779 170.978 29.0222 170.934 29.0667z"/>
<path style="stroke:none; fill:#f8dabb" d="M 220.534 29.0667C 220.178 29.4222 221.022 29.3778 221.066 29.3334C 221.422 28.9778 220.578 29.0222 220.534 29.0667z"/>
<path style="stroke:none; fill:#f6cca3" d="M 167.734 29.8666C 167.378 30.2223 168.222 30.1778 168.266 30.1334C 168.622 29.7779 167.778 29.8222 167.734 29.8666z"/>
<path style="stroke:none; fill:#f8dabb" d="M 223.734 29.8666C 223.378 30.2222 224.222 30.1779 224.266 30.1334C 224.622 29.7778 223.778 29.8223 223.734 29.8666z"/>
<path style="stroke:none; fill:#f9e8d5" d="M 226.934 30.6667C 226.578 31.0221 227.422 30.9778 227.466 30.9334C 227.822 30.5778 226.978 30.6223 226.934 30.6667z"/>
<path style="stroke:none; fill:#f9e0cd" d="M 229.334 31.4666C 228.978 31.8222 229.822 31.7778 229.866 31.7334C 230.222 31.3778 229.378 31.4222 229.334 31.4666z"/>
<path style="stroke:none; fill:#f9e8d5" d="M 234.134 33.0667C 233.778 33.4222 234.622 33.3778 234.666 33.3334C 235.022 32.9778 234.178 33.0223 234.134 33.0667z"/>
<path style="stroke:none; fill:#f3b985" d="M 155.734 33.8666C 155.378 34.2223 156.222 34.1777 156.266 34.1334C 156.622 33.7779 155.778 33.8222 155.734 33.8666z"/>
<path style="stroke:none; fill:#f7d2b0" d="M 236 33.6L 236.8 34.4L 236 33.6z"/>
<path style="stroke:none; fill:#f8dabb" d="M 149.6 36L 150.4 36.8L 149.6 36z"/>
<path style="stroke:none; fill:#f7d2b0" d="M 241.6 36L 242.4 36.8L 241.6 36M 148 36.8L 148.8 37.6L 148 36.8M 243.2 36.8L 244 37.6L 243.2 36.8z"/>
<path style="stroke:none; fill:#f6cca3" d="M 146.4 37.6L 147.2 38.4L 146.4 37.6M 244.8 37.6L 245.6 38.4L 244.8 37.6z"/>
<path style="stroke:none; fill:#f7d2b0" d="M 144.8 38.4L 145.6 39.2L 144.8 38.4M 246.4 38.4L 247.2 39.2L 246.4 38.4z"/>
<path style="stroke:none; fill:#f8dabb" d="M 143.2 39.2L 144 40L 143.2 39.2z"/>
<path style="stroke:none; fill:#f7d2b0" d="M 248 39.2L 248.8 40L 248 39.2z"/>
<path style="stroke:none; fill:#f6cca3" d="M 139.2 41.6L 140 42.4L 139.2 41.6z"/>
<path style="stroke:none; fill:#f8dabb" d="M 137.6 42.4L 138.4 43.2L 137.6 42.4M 253.6 42.4L 254.4 43.2L 253.6 42.4z"/>
<path style="stroke:none; fill:#f7d2b0" d="M 135.2 44L 136 44.8L 135.2 44M 256 44L 256.8 44.8L 256 44M 132.8 45.6L 133.6 46.4L 132.8 45.6M 258.4 45.6L 259.2 46.4L 258.4 45.6M 260.8 47.2L 261.6 48L 260.8 47.2z"/>
<path style="stroke:none; fill:#e18541" d="M 118.4 60C 123.265 61.1583 128.608 61.1283 133.6 61.5314C 138.298 61.9108 142.62 63.1455 147.2 64.203C 152.918 65.5234 161.764 61.0097 155.746 54.6228C 147.09 45.4371 122.199 46.7449 118.4 60M 261.6 48.8C 265.107 54.605 268.912 60.2158 271.753 66.4C 284.83 94.8648 293.495 146.935 257.6 162.921C 254.902 164.122 250.159 166.27 247.2 165.32C 240.285 163.1 231.857 150.566 223.287 155.344C 215.343 159.772 223.734 166.6 228.8 168L 228.8 168.8C 214.037 169.965 199.949 170.701 185.6 174.977C 145.749 186.85 103.969 222.253 100.872 266.4C 99.92 279.968 100.614 293.339 104.342 306.4C 108.638 321.453 118.108 333.871 107.369 348.799C 100.467 358.394 90.7888 359.2 80 359.2C 57.6793 359.2 41.833 349.991 22.4 340.8C 26.3927 351.106 39.0781 360.183 48 366.134C 79.7889 387.334 117.43 386.964 153.6 379.357C 163.267 377.323 172.762 372.028 182.4 370.602C 188.281 369.733 196.071 374.938 201.6 376.797C 212.844 380.578 225.017 382.743 236.8 383.864C 285.811 388.528 330.717 367.683 364.8 333.6C 377.077 321.323 390.184 309.648 398.858 294.4C 413.478 268.697 412.842 235.192 398.615 209.6C 393.392 200.205 385.279 188.492 375.2 184C 380.79 198.772 388.846 210.694 389.569 227.2C 391.066 261.432 371.614 285.186 348.8 308C 333.605 323.195 318.366 337.188 299.2 347.289C 290.226 352.018 280.398 354.322 271.2 358.4C 271.186 353.423 271.321 345.886 268.097 341.782C 265.425 338.382 259.855 338.5 257.746 342.447C 255.495 346.662 258.4 356.586 258.4 361.6C 245.274 361.709 232.454 364.549 219.2 363.969C 195.916 362.949 171.942 354.638 152 342.838C 145.194 338.811 137.329 334.204 132.303 327.997C 110.992 301.677 110.893 253.833 134.772 228.882C 140.274 223.131 151.014 231.45 153.729 236.801C 154.988 239.282 155.067 242.406 156.686 244.682C 159.02 247.965 164.219 247.778 166.606 244.618C 174.932 233.593 155.586 218.86 147.2 216C 164.338 199.599 187.132 190.074 210.4 186.742C 225.765 184.542 241.485 184.878 256.8 181.588C 267.019 179.393 277.142 176.723 287.2 173.833C 290.831 172.79 296.925 169.562 300.664 170.34C 309.181 172.114 320.883 183.896 324.877 191.2C 327.332 195.691 327.216 205.458 334.398 204.582C 343.994 203.411 338.79 189.782 336.08 184.8C 329.313 172.362 321.198 166.231 307.2 168C 307.2 132.545 306.81 100.086 284.5 70.4C 278.591 62.5382 270.866 52.7233 261.6 48.8z"/>
<path style="stroke:none; fill:#f3c49c" d="M 127.2 49.6L 128 50.4L 127.2 49.6z"/>
<path style="stroke:none; fill:#f6cca3" d="M 264 49.6L 264.8 50.4L 264 49.6z"/>
<path style="stroke:none; fill:#edac78" d="M 264.8 50.4L 265.6 51.2L 264.8 50.4z"/>
<path style="stroke:none; fill:#f7d2b0" d="M 123.2 52.8L 124 53.6L 123.2 52.8z"/>
<path style="stroke:none; fill:#f0bb8f" d="M 122.4 53.6L 123.2 54.4L 122.4 53.6z"/>
<path style="stroke:none; fill:#f7d2b0" d="M 268.8 53.6L 269.6 54.4L 268.8 53.6z"/>
<path style="stroke:none; fill:#edb484" d="M 121.6 54.4L 122.4 55.2L 121.6 54.4z"/>
<path style="stroke:none; fill:#f0bb8f" d="M 269.6 54.4L 270.4 55.2L 269.6 54.4z"/>
<path style="stroke:none; fill:#edac78" d="M 270.4 55.2L 271.2 56L 270.4 55.2z"/>
<path style="stroke:none; fill:#edb484" d="M 276.8 61.6L 277.6 62.4L 276.8 61.6z"/>
<path style="stroke:none; fill:#f6cca3" d="M 113.6 62.4L 114.4 63.2L 113.6 62.4z"/>
<path style="stroke:none; fill:#f0bb8f" d="M 277.6 62.4L 278.4 63.2L 277.6 62.4z"/>
<path style="stroke:none; fill:#f8dabb" d="M 112.8 63.2L 113.6 64L 112.8 63.2z"/>
<path style="stroke:none; fill:#f6cca3" d="M 278.4 63.2L 279.2 64L 278.4 63.2z"/>
<path style="stroke:none; fill:#f7d2b0" d="M 279.2 64L 280 64.8L 279.2 64M 108.8 68L 109.6 68.8L 108.8 68z"/>
<path style="stroke:none; fill:#f3c49c" d="M 282.4 68L 283.2 68.8L 282.4 68z"/>
<path style="stroke:none; fill:#f6cca3" d="M 106.4 71.2L 107.2 72L 106.4 71.2z"/>
<path style="stroke:none; fill:#f0bb8f" d="M 284.8 71.2L 285.6 72L 284.8 71.2z"/>
<path style="stroke:none; fill:#e18541" d="M 217.647 72.8228C 214.458 74.5524 213.744 78.5959 215.794 81.4936C 218.943 85.9448 226.86 86.6408 231.197 90.0232C 236.421 94.0984 237.035 100.162 241.208 104.546C 243.057 106.487 246.378 106.886 248.713 105.578C 254.079 102.569 251.084 95.276 248.879 91.2C 244.696 83.4664 227.994 67.2098 217.647 72.8228z"/>
<path style="stroke:none; fill:#f8dabb" d="M 104 74.4L 104.8 75.2L 104 74.4z"/>
<path style="stroke:none; fill:#f6cca3" d="M 287.2 74.4L 288 75.2L 287.2 74.4z"/>
<path style="stroke:none; fill:#f8dabb" d="M 102.4 76.8L 103.2 77.6L 102.4 76.8z"/>
<path style="stroke:none; fill:#f7d2b0" d="M 288.8 76.8L 289.6 77.6L 288.8 76.8M 100 80.8L 100.8 81.6L 100 80.8z"/>
<path style="stroke:none; fill:#f0bb8f" d="M 291.2 80.8L 292 81.6L 291.2 80.8z"/>
<path style="stroke:none; fill:#f8dabb" d="M 293.6 84.8L 294.4 85.6L 293.6 84.8z"/>
<path style="stroke:none; fill:#f6cca3" d="M 294.4 86.4L 295.2 87.2L 294.4 86.4z"/>
<path style="stroke:none; fill:#f8dabb" d="M 96 88L 96.8 88.8L 96 88z"/>
<path style="stroke:none; fill:#f7d2b0" d="M 295.2 88L 296 88.8L 295.2 88z"/>
<path style="stroke:none; fill:#f8dabb" d="M 95.2 89.6L 96 90.4L 95.2 89.6z"/>
<path style="stroke:none; fill:#f7d2b0" d="M 296 89.6L 296.8 90.4L 296 89.6M 94.4 91.2L 95.2 92L 94.4 91.2z"/>
<path style="stroke:none; fill:#f6cca3" d="M 93.6 92.8L 94.4 93.6L 93.6 92.8z"/>
<path style="stroke:none; fill:#f0bb8f" d="M 298.4 95.2L 299.2 96L 298.4 95.2z"/>
<path style="stroke:none; fill:#f3c49c" d="M 300 99.2L 300.8 100L 300 99.2z"/>
<path style="stroke:none; fill:#f7d2b0" d="M 88.8 101.6L 89.6 102.4L 88.8 101.6z"/>
<path style="stroke:none; fill:#eba66b" d="M 302.666 106.934C 302.622 106.978 302.578 107.822 302.934 107.466C 302.978 107.422 303.022 106.578 302.666 106.934z"/>
<path style="stroke:none; fill:#f7d2b0" d="M 85.6 107.2L 86.4 108L 85.6 107.2z"/>
<path style="stroke:none; fill:#f6cca3" d="M 84.8 108.8L 85.6 109.6L 84.8 108.8z"/>
<path style="stroke:none; fill:#edb484" d="M 304.266 112.534C 304.222 112.578 304.178 113.422 304.534 113.066C 304.578 113.022 304.622 112.178 304.266 112.534z"/>
<path style="stroke:none; fill:#f6cca3" d="M 82.4 112.8L 83.2 113.6L 82.4 112.8z"/>
<path style="stroke:none; fill:#edac78" d="M 305.066 116.534C 305.022 116.578 304.978 117.422 305.334 117.066C 305.378 117.022 305.422 116.178 305.066 116.534z"/>
<path style="stroke:none; fill:#f6cca3" d="M 80 116.8L 80.8 117.6L 80 116.8z"/>
<path style="stroke:none; fill:#f0bb8f" d="M 305.866 120.534C 305.822 120.578 305.778 121.422 306.134 121.066C 306.178 121.022 306.222 120.178 305.866 120.534z"/>
<path style="stroke:none; fill:#f6cca3" d="M 77.6 120.8L 78.4 121.6L 77.6 120.8z"/>
<path style="stroke:none; fill:#f7d2b0" d="M 76 123.2L 76.8 124L 76 123.2z"/>
<path style="stroke:none; fill:#f8dabb" d="M 74.4 125.6L 75.2 126.4L 74.4 125.6z"/>
<path style="stroke:none; fill:#f6cca3" d="M 306.666 126.134C 306.622 126.178 306.578 127.022 306.934 126.666C 306.978 126.622 307.022 125.778 306.666 126.134z"/>
<path style="stroke:none; fill:#e9924e" d="M 306.4 127.2L 306.4 131.2L 307.2 131.2C 307.13 129.629 307.023 128.615 306.4 127.2z"/>
<path style="stroke:none; fill:#f6cca3" d="M 70.4 132L 71.2 132.8L 70.4 132z"/>
<path style="stroke:none; fill:#f9e0cd" d="M 307.2 136L 307.2 168L 308 168C 308 158.853 310.729 144.41 307.2 136z"/>
<path style="stroke:none; fill:#e18541" d="M 124.075 137.394C 119.328 139.372 119.305 145.436 123.287 148.206C 126.793 150.646 133.409 150.247 137.6 151.531C 144.802 153.737 149.066 157.337 154.536 162.294C 156.693 164.248 159.458 165.384 162.325 164.206C 170.198 160.97 163.75 152.614 159.928 149.151C 152.69 142.593 134.279 133.142 124.075 137.394z"/>
<path style="stroke:none; fill:#f8dabb" d="M 64.8 140L 65.6 140.8L 64.8 140z"/>
<path style="stroke:none; fill:#f7d2b0" d="M 63.2 142.4L 64 143.2L 63.2 142.4z"/>
<path style="stroke:none; fill:#f8dabb" d="M 60.8 145.6L 61.6 146.4L 60.8 145.6M 58.4 148.8L 59.2 149.6L 58.4 148.8M 53.6 155.2L 54.4 156L 53.6 155.2z"/>
<path style="stroke:none; fill:#f6cca3" d="M 51.2 158.4L 52 159.2L 51.2 158.4z"/>
<path style="stroke:none; fill:#f8dabb" d="M 47.2 163.2L 48 164L 47.2 163.2z"/>
<path style="stroke:none; fill:#f7d2b0" d="M 314.934 166.666C 314.578 167.022 315.422 166.978 315.466 166.934C 315.822 166.578 314.978 166.622 314.934 166.666z"/>
<path style="stroke:none; fill:#edac78" d="M 316 166.4L 316 167.2L 319.2 167.2C 317.995 166.654 317.348 166.539 316 166.4z"/>
<path style="stroke:none; fill:#f0bb8f" d="M 319.2 166.4L 319.2 167.2L 329.6 167.2C 326.433 165.871 322.61 166.4 319.2 166.4z"/>
<path style="stroke:none; fill:#f8dabb" d="M 329.6 166.4L 329.6 167.2L 332 167.2C 331.002 166.652 330.762 166.601 329.6 166.4z"/>
<path style="stroke:none; fill:#f6cca3" d="M 44 167.2L 44.8 168L 44 167.2z"/>
<path style="stroke:none; fill:#f3c49c" d="M 309.334 167.466C 308.978 167.822 309.822 167.778 309.866 167.734C 310.222 167.378 309.378 167.422 309.334 167.466z"/>
<path style="stroke:none; fill:#efa75f" d="M 320 167.2L 320 168C 328.438 174.066 335.518 181.94 338.784 192C 340.2 196.362 340.62 202.376 335.188 204.171C 328.182 206.486 327.521 196.069 325.677 192C 321.858 183.574 314.729 178.884 307.203 174.142C 305.181 172.868 303.112 170.338 300.664 170.002C 296.708 169.458 291.004 172.504 287.2 173.6C 277.129 176.502 266.998 179.064 256.8 181.412C 225.15 188.699 193.759 184.509 164.8 202.249C 158.615 206.038 151.546 210.096 147.2 216C 154.606 219.526 175.357 234.126 166.053 244.618C 163.557 247.433 159.667 247.633 157.211 244.682C 155.183 242.245 155.142 238.768 153.729 236.003C 151.15 230.958 139.985 222.95 134.772 228.131C 105.95 256.778 111.868 316.825 144.8 338.788C 166.091 352.987 192.675 362.842 218.4 363.969C 231.943 364.562 244.993 361.877 258.4 361.6C 258.4 356.814 255.859 347.276 257.775 343.215C 259.946 338.614 265.266 338.574 268.097 342.487C 271.078 346.608 271.159 353.496 271.2 358.4C 303.754 347.807 327.135 330.465 351.2 306.4C 362.489 295.111 373.988 284.29 380.888 269.6C 390.806 248.486 392.318 221.726 383.517 200C 381.158 194.178 378.136 186.494 373.39 182.209C 359.281 169.469 338.002 167.2 320 167.2z"/>
<path style="stroke:none; fill:#f3c49c" d="M 335.2 167.2L 335.2 168L 337.6 168C 336.602 167.452 336.362 167.401 335.2 167.2z"/>
<path style="stroke:none; fill:#f7d2b0" d="M 43.2 168L 44 168.8L 43.2 168z"/>
<path style="stroke:none; fill:#f8dabb" d="M 340.8 168L 340.8 168.8L 343.2 168.8C 342.202 168.252 341.962 168.201 340.8 168M 347.734 169.866C 347.378 170.222 348.222 170.178 348.266 170.134C 348.622 169.778 347.778 169.822 347.734 169.866z"/>
<path style="stroke:none; fill:#f7d2b0" d="M 356.8 172.8L 357.6 173.6L 356.8 172.8z"/>
<path style="stroke:none; fill:#f6cca3" d="M 38.4 173.6L 39.2 174.4L 38.4 173.6z"/>
<path style="stroke:none; fill:#f8dabb" d="M 37.6 174.4L 38.4 175.2L 37.6 174.4z"/>
<path style="stroke:none; fill:#f6cca3" d="M 366.4 177.6L 367.2 178.4L 366.4 177.6z"/>
<path style="stroke:none; fill:#f7d2b0" d="M 33.6 179.2L 34.4 180L 33.6 179.2M 370.4 180L 371.2 180.8L 370.4 180M 372.8 181.6L 373.6 182.4L 372.8 181.6z"/>
<path style="stroke:none; fill:#f8dabb" d="M 30.4 183.2L 31.2 184L 30.4 183.2z"/>
<path style="stroke:none; fill:#f3c49c" d="M 375.2 183.2L 376 184L 375.2 183.2z"/>
<path style="stroke:none; fill:#f8dabb" d="M 28 186.4L 28.8 187.2L 28 186.4z"/>
<path style="stroke:none; fill:#f3c49c" d="M 379.2 186.4L 380 187.2L 379.2 186.4z"/>
<path style="stroke:none; fill:#f7d2b0" d="M 26.4 188.8L 27.2 189.6L 26.4 188.8z"/>
<path style="stroke:none; fill:#f6cca3" d="M 24.8 191.2L 25.6 192L 24.8 191.2z"/>
<path style="stroke:none; fill:#f7d2b0" d="M 23.2 193.6L 24 194.4L 23.2 193.6z"/>
<path style="stroke:none; fill:#f8dabb" d="M 21.6 196L 22.4 196.8L 21.6 196z"/>
<path style="stroke:none; fill:#f0bb8f" d="M 388.8 196L 389.6 196.8L 388.8 196z"/>
<path style="stroke:none; fill:#f7d2b0" d="M 389.6 196.8L 390.4 197.6L 389.6 196.8z"/>
<path style="stroke:none; fill:#edb484" d="M 392 200L 392.8 200.8L 392 200z"/>
<path style="stroke:none; fill:#e18541" d="M 49.6154 201.394C 45.1511 203.153 44.4018 209.176 48.1827 212.088C 56.5202 218.51 66.6114 216.876 74.0877 226.4C 77.1225 230.266 79.3933 240.679 86.316 237.71C 93.8344 234.485 88.4752 224.499 85.5192 220.001C 79.9398 211.509 60.8868 196.955 49.6154 201.394z"/>
<path style="stroke:none; fill:#f8dabb" d="M 392.8 200.8L 393.6 201.6L 392.8 200.8z"/>
<path style="stroke:none; fill:#f7d2b0" d="M 18.4 201.6L 19.2 202.4L 18.4 201.6z"/>
<path style="stroke:none; fill:#f3c49c" d="M 394.4 203.2L 395.2 204L 394.4 203.2M 396 205.6L 396.8 206.4L 396 205.6z"/>
<path style="stroke:none; fill:#e18541" d="M 248.012 207.828C 244.25 209.09 242.43 213.384 244.597 216.766C 247.909 221.934 255.505 224.306 259.769 228.872C 264.934 234.402 265.146 240.17 268.458 246.313C 269.901 248.99 273.098 250.186 275.985 249.114C 282.223 246.8 279.871 238.14 278.038 233.6C 274.17 224.02 267.097 216.658 258.4 211.253C 255.585 209.502 251.495 206.661 248.012 207.828z"/>
<path style="stroke:none; fill:#f3c49c" d="M 398.4 209.6L 399.2 210.4L 398.4 209.6z"/>
<path style="stroke:none; fill:#f3b985" d="M 399.2 211.2L 400 212L 399.2 211.2z"/>
<path style="stroke:none; fill:#f7d2b0" d="M 12 214.4L 12.8 215.2L 12 214.4z"/>
<path style="stroke:none; fill:#edb484" d="M 400.8 214.4L 401.6 215.2L 400.8 214.4z"/>
<path style="stroke:none; fill:#f0bb8f" d="M 401.6 216L 402.4 216.8L 401.6 216z"/>
<path style="stroke:none; fill:#f7d2b0" d="M 402.4 217.6L 403.2 218.4L 402.4 217.6M 404 221.6L 404.8 222.4L 404 221.6z"/>
<path style="stroke:none; fill:#e9924e" d="M 388.8 223.2L 388.8 236L 389.6 236C 389.6 231.928 390.386 226.979 388.8 223.2z"/>
<path style="stroke:none; fill:#f6cca3" d="M 405.6 226.4L 406.4 227.2L 405.6 226.4z"/>
<path style="stroke:none; fill:#f0bb8f" d="M 5.86666 232.534C 5.82219 232.578 5.77778 233.422 6.13334 233.066C 6.17775 233.022 6.22222 232.178 5.86666 232.534z"/>
<path style="stroke:none; fill:#edb484" d="M 407.466 232.534C 407.422 232.578 407.378 233.422 407.734 233.066C 407.778 233.022 407.822 232.178 407.466 232.534z"/>
<path style="stroke:none; fill:#f7d2b0" d="M 5.06666 234.934C 5.02219 234.978 4.97778 235.822 5.33334 235.466C 5.37775 235.422 5.42222 234.578 5.06666 234.934z"/>
<path style="stroke:none; fill:#e18541" d="M 320.847 235.223C 311.03 240.543 327.434 251.259 330.13 256C 331.861 259.043 332.182 263.692 334.654 266.146C 336.442 267.92 339.32 268.383 341.553 267.177C 345.466 265.063 345.22 259.702 344.169 256C 342.117 248.77 330.558 229.96 320.847 235.223z"/>
<path style="stroke:none; fill:#f3b985" d="M 408.266 236.534C 408.222 236.578 408.178 237.422 408.534 237.066C 408.578 237.022 408.622 236.178 408.266 236.534z"/>
<path style="stroke:none; fill:#f7d2b0" d="M 4.26666 238.134C 4.22219 238.178 4.17778 239.022 4.53334 238.666C 4.57774 238.622 4.62224 237.778 4.26666 238.134M 3.2 240.8L 3.2 243.2L 4 243.2C 3.79904 242.038 3.74783 241.798 3.2 240.8M 409.066 241.334C 409.022 241.378 408.978 242.222 409.334 241.866C 409.378 241.822 409.422 240.978 409.066 241.334z"/>
<path style="stroke:none; fill:#eba66b" d="M 408.8 242.4L 408.8 245.6L 409.6 245.6C 409.461 244.252 409.346 243.605 408.8 242.4z"/>
<path style="stroke:none; fill:#f7d2b0" d="M 2.4 244.8L 2.4 247.2L 3.2 247.2C 2.99903 246.038 2.94784 245.798 2.4 244.8z"/>
<path style="stroke:none; fill:#f8dabb" d="M 1.6 248.8L 1.6 251.2L 2.4 251.2C 2.19904 250.038 2.14783 249.798 1.6 248.8M 1.06666 254.934C 1.02226 254.978 0.97776 255.822 1.33334 255.466C 1.37782 255.422 1.4222 254.578 1.06666 254.934z"/>
<path style="stroke:none; fill:#edb484" d="M 0.8 256L 0.8 259.2L 1.6 259.2C 1.46071 257.852 1.34643 257.205 0.8 256M 408.8 257.6L 408.8 261.6L 409.6 261.6C 409.53 260.029 409.423 259.015 408.8 257.6z"/>
<path style="stroke:none; fill:#fbede0" d="M 0 260.8L 0 263.2L 0.8 263.2C 0.599041 262.038 0.547836 261.798 0 260.8z"/>
<path style="stroke:none; fill:#f9e8d5" d="M 409.066 262.134C 409.022 262.178 408.978 263.022 409.334 262.666C 409.378 262.622 409.422 261.778 409.066 262.134z"/>
<path style="stroke:none; fill:#f6cca3" d="M 0 263.2L 0 268L 0.8 268C 0.762231 266.198 0.699393 264.842 0 263.2z"/>
<path style="stroke:none; fill:#ffffff" fill-opacity="0" d="M 408.8 263.2C 407.73 288.054 390.129 307.471 373.6 324C 339.727 357.873 301.926 384.558 252 384.799C 237.242 384.87 222.174 382.83 208 378.623C 200.755 376.474 190.665 370.105 183.2 370.582C 175.73 371.06 168.03 375.715 160.8 377.664C 146.851 381.425 132.046 384.136 117.6 384.769C 63.1613 387.152 0.96392 345.806 0.8 286.4L 0 286.4L 0 409.6L 409.6 409.6L 409.6 306.4L 409.6 277.6C 409.6 273.105 410.551 267.373 408.8 263.2z"/>
<path style="stroke:none; fill:#f0bb8f" d="M 408 265.6L 408 268L 408.8 268C 408.599 266.838 408.548 266.598 408 265.6z"/>
<path style="stroke:none; fill:#e9924e" d="M 100 269.6L 100 286.4L 100.8 286.4C 100.8 281.251 102 274.367 100 269.6z"/>
<path style="stroke:none; fill:#f8dabb" d="M 407.466 270.934C 407.422 270.978 407.378 271.822 407.734 271.466C 407.778 271.422 407.822 270.578 407.466 270.934z"/>
<path style="stroke:none; fill:#edb484" d="M 406.4 273.6L 407.2 274.4L 406.4 273.6z"/>
<path style="stroke:none; fill:#f3c49c" d="M 405.6 276.8L 406.4 277.6L 405.6 276.8z"/>
<path style="stroke:none; fill:#edb484" d="M 0 279.2L 0 282.4L 0.8 282.4C 0.66071 281.052 0.546434 280.405 0 279.2z"/>
<path style="stroke:none; fill:#f3c49c" d="M 404.8 279.2L 405.6 280L 404.8 279.2M 404 281.6L 404.8 282.4L 404 281.6z"/>
<path style="stroke:none; fill:#f7d2b0" d="M 0 282.4L 0 286.4L 0.8 286.4C 0.729926 284.829 0.623146 283.815 0 282.4z"/>
<path style="stroke:none; fill:#f0bb8f" d="M 402.4 285.6L 403.2 286.4L 402.4 285.6z"/>
<path style="stroke:none; fill:#edac78" d="M 401.6 287.2L 402.4 288L 401.6 287.2z"/>
<path style="stroke:none; fill:#f3c49c" d="M 0.8 289.6L 0.8 292L 1.6 292C 1.39903 290.838 1.34784 290.598 0.8 289.6z"/>
<path style="stroke:none; fill:#f9e8d5" d="M 1.06666 292.534C 1.02224 292.578 0.977768 293.422 1.33334 293.066C 1.37779 293.022 1.42223 292.178 1.06666 292.534z"/>
<path style="stroke:none; fill:#f6cca3" d="M 1.6 295.2L 1.6 297.6L 2.4 297.6C 2.19903 296.438 2.14783 296.198 1.6 295.2z"/>
<path style="stroke:none; fill:#f0bb8f" d="M 397.6 295.2L 398.4 296L 397.6 295.2z"/>
<path style="stroke:none; fill:#f7d2b0" d="M 396.8 296.8L 397.6 297.6L 396.8 296.8M 2.66666 299.734C 2.62222 299.778 2.57778 300.622 2.93334 300.266C 2.97778 300.222 3.02222 299.378 2.66666 299.734z"/>
<path style="stroke:none; fill:#f3c49c" d="M 395.2 299.2L 396 300L 395.2 299.2z"/>
<path style="stroke:none; fill:#f6cca3" d="M 393.6 301.6L 394.4 302.4L 393.6 301.6z"/>
<path style="stroke:none; fill:#f9e8d5" d="M 3.46666 303.734C 3.42221 303.778 3.37777 304.622 3.73334 304.266C 3.77776 304.222 3.82223 303.378 3.46666 303.734z"/>
<path style="stroke:none; fill:#f0bb8f" d="M 391.2 304.8L 392 305.6L 391.2 304.8z"/>
<path style="stroke:none; fill:#f9e0cd" d="M 4.26666 306.134C 4.22221 306.178 4.17777 307.022 4.53334 306.666C 4.57776 306.622 4.62223 305.778 4.26666 306.134z"/>
<path style="stroke:none; fill:#f6cca3" d="M 388 308.8L 388.8 309.6L 388 308.8z"/>
<path style="stroke:none; fill:#edb484" d="M 387.2 309.6L 388 310.4L 387.2 309.6z"/>
<path style="stroke:none; fill:#f6cca3" d="M 7.2 315.2L 8 316L 7.2 315.2z"/>
<path style="stroke:none; fill:#f7d2b0" d="M 8.8 319.2L 9.6 320L 8.8 319.2z"/>
<path style="stroke:none; fill:#f6cca3" d="M 9.6 320.8L 10.4 321.6L 9.6 320.8z"/>
<path style="stroke:none; fill:#f7d2b0" d="M 13.6 328.8L 14.4 329.6L 13.6 328.8M 16 332.8L 16.8 333.6L 16 332.8z"/>
<path style="stroke:none; fill:#f6cca3" d="M 17.6 335.2L 18.4 336L 17.6 335.2M 19.2 337.6L 20 338.4L 19.2 337.6z"/>
<path style="stroke:none; fill:#f3c49c" d="M 23.2 343.2L 24 344L 23.2 343.2z"/>
<path style="stroke:none; fill:#edb484" d="M 353.6 343.2L 354.4 344L 353.6 343.2z"/>
<path style="stroke:none; fill:#f0bb8f" d="M 352.8 344L 353.6 344.8L 352.8 344z"/>
<path style="stroke:none; fill:#f3c49c" d="M 352 344.8L 352.8 345.6L 352 344.8z"/>
<path style="stroke:none; fill:#f8dabb" d="M 351.2 345.6L 352 346.4L 351.2 345.6z"/>
<path style="stroke:none; fill:#f7d2b0" d="M 27.2 348L 28 348.8L 27.2 348z"/>
<path style="stroke:none; fill:#f0bb8f" d="M 28 348.8L 28.8 349.6L 28 348.8M 28.8 349.6L 29.6 350.4L 28.8 349.6z"/>
<path style="stroke:none; fill:#f3c49c" d="M 346.4 349.6L 347.2 350.4L 346.4 349.6z"/>
<path style="stroke:none; fill:#f3b985" d="M 29.6 350.4L 30.4 351.2L 29.6 350.4z"/>
<path style="stroke:none; fill:#edb484" d="M 30.4 351.2L 31.2 352L 30.4 351.2M 343.2 352L 344 352.8L 343.2 352z"/>
<path style="stroke:none; fill:#f7d2b0" d="M 342.4 352.8L 343.2 353.6L 342.4 352.8z"/>
<path style="stroke:none; fill:#edac78" d="M 32.8 353.6L 33.6 354.4L 32.8 353.6z"/>
<path style="stroke:none; fill:#edb484" d="M 33.6 354.4L 34.4 355.2L 33.6 354.4z"/>
<path style="stroke:none; fill:#f3c49c" d="M 34.4 355.2L 35.2 356L 34.4 355.2z"/>
<path style="stroke:none; fill:#f7d2b0" d="M 339.2 355.2L 340 356L 339.2 355.2z"/>
<path style="stroke:none; fill:#f3c49c" d="M 35.2 356L 36 356.8L 35.2 356z"/>
<path style="stroke:none; fill:#f7d2b0" d="M 36 356.8L 36.8 357.6L 36 356.8z"/>
<path style="stroke:none; fill:#f3c49c" d="M 336.8 356.8L 337.6 357.6L 336.8 356.8z"/>
<path style="stroke:none; fill:#edb484" d="M 334.4 358.4L 335.2 359.2L 334.4 358.4z"/>
<path style="stroke:none; fill:#f3b985" d="M 40 360L 40.8 360.8L 40 360z"/>
<path style="stroke:none; fill:#f3c49c" d="M 332 360L 332.8 360.8L 332 360z"/>
<path style="stroke:none; fill:#f7d2b0" d="M 40.8 360.8L 41.6 361.6L 40.8 360.8M 329.6 361.6L 330.4 362.4L 329.6 361.6z"/>
<path style="stroke:none; fill:#edb484" d="M 328 362.4L 328.8 363.2L 328 362.4z"/>
<path style="stroke:none; fill:#f6cca3" d="M 44 363.2L 44.8 364L 44 363.2z"/>
<path style="stroke:none; fill:#edb484" d="M 46.4 364.8L 47.2 365.6L 46.4 364.8z"/>
<path style="stroke:none; fill:#f3c49c" d="M 324 364.8L 324.8 365.6L 324 364.8z"/>
<path style="stroke:none; fill:#edb484" d="M 322.4 365.6L 323.2 366.4L 322.4 365.6M 48.8 366.4L 49.6 367.2L 48.8 366.4z"/>
<path style="stroke:none; fill:#f0bb8f" d="M 51.2 368L 52 368.8L 51.2 368z"/>
<path style="stroke:none; fill:#f9e0cd" d="M 183.734 369.866C 183.378 370.222 184.222 370.178 184.266 370.134C 184.622 369.778 183.778 369.822 183.734 369.866z"/>
<path style="stroke:none; fill:#f6cca3" d="M 55.2 370.4L 56 371.2L 55.2 370.4M 180.8 370.4L 181.6 371.2L 180.8 370.4z"/>
<path style="stroke:none; fill:#f0bb8f" d="M 312.8 370.4L 313.6 371.2L 312.8 370.4z"/>
<path style="stroke:none; fill:#edb484" d="M 56.8 371.2L 57.6 372L 56.8 371.2M 178.4 371.2L 179.2 372L 178.4 371.2z"/>
<path style="stroke:none; fill:#f0bb8f" d="M 188 371.2L 188.8 372L 188 371.2z"/>
<path style="stroke:none; fill:#f3c49c" d="M 311.2 371.2L 312 372L 311.2 371.2z"/>
<path style="stroke:none; fill:#f7d2b0" d="M 189.6 372L 190.4 372.8L 189.6 372z"/>
<path style="stroke:none; fill:#edb484" d="M 60 372.8L 60.8 373.6L 60 372.8M 307.2 372.8L 308 373.6L 307.2 372.8z"/>
<path style="stroke:none; fill:#f3c49c" d="M 193.6 373.6L 194.4 374.4L 193.6 373.6z"/>
<path style="stroke:none; fill:#edb484" d="M 63.2 374.4L 64 375.2L 63.2 374.4z"/>
<path style="stroke:none; fill:#f9e8d5" d="M 170.134 374.666C 169.778 375.022 170.622 374.978 170.666 374.934C 171.022 374.578 170.178 374.622 170.134 374.666z"/>
<path style="stroke:none; fill:#f3b985" d="M 196 374.4L 196.8 375.2L 196 374.4z"/>
<path style="stroke:none; fill:#f3c49c" d="M 303.2 374.4L 304 375.2L 303.2 374.4z"/>
<path style="stroke:none; fill:#f6cca3" d="M 64.8 375.2L 65.6 376L 64.8 375.2z"/>
<path style="stroke:none; fill:#f9e8d5" d="M 167.734 375.466C 167.378 375.822 168.222 375.778 168.266 375.734C 168.622 375.378 167.778 375.422 167.734 375.466z"/>
<path style="stroke:none; fill:#edb484" d="M 300.8 375.2L 301.6 376L 300.8 375.2z"/>
<path style="stroke:none; fill:#edac78" d="M 164 376L 164.8 376.8L 164 376z"/>
<path style="stroke:none; fill:#f7d2b0" d="M 200 376L 200.8 376.8L 200 376z"/>
<path style="stroke:none; fill:#edb484" d="M 298.4 376L 299.2 376.8L 298.4 376z"/>
<path style="stroke:none; fill:#f0bb8f" d="M 68.8 376.8L 69.6 377.6L 68.8 376.8z"/>
<path style="stroke:none; fill:#f9e0cd" d="M 162.134 377.066C 161.778 377.422 162.622 377.378 162.666 377.334C 163.022 376.978 162.178 377.022 162.134 377.066z"/>
<path style="stroke:none; fill:#edb484" d="M 296 376.8L 296.8 377.6L 296 376.8z"/>
<path style="stroke:none; fill:#f8dabb" d="M 158.934 377.866C 158.578 378.222 159.422 378.178 159.466 378.134C 159.822 377.778 158.978 377.822 158.934 377.866z"/>
<path style="stroke:none; fill:#f0bb8f" d="M 293.6 377.6L 294.4 378.4L 293.6 377.6z"/>
<path style="stroke:none; fill:#eba66b" d="M 208.534 378.666C 208.178 379.022 209.022 378.978 209.066 378.934C 209.422 378.578 208.578 378.622 208.534 378.666z"/>
<path style="stroke:none; fill:#f8dabb" d="M 291.2 378.4L 292 379.2L 291.2 378.4z"/>
<path style="stroke:none; fill:#f7d2b0" d="M 75.2 379.2L 76 380L 75.2 379.2z"/>
<path style="stroke:none; fill:#f8dabb" d="M 152.534 379.466C 152.178 379.822 153.022 379.778 153.066 379.734C 153.422 379.378 152.578 379.422 152.534 379.466z"/>
<path style="stroke:none; fill:#eba66b" d="M 211.734 379.466C 211.378 379.822 212.222 379.778 212.266 379.734C 212.622 379.378 211.778 379.422 211.734 379.466z"/>
<path style="stroke:none; fill:#f3c49c" d="M 288 379.2L 288.8 380L 288 379.2M 148.534 380.266C 148.178 380.622 149.022 380.578 149.066 380.534C 149.422 380.178 148.578 380.222 148.534 380.266z"/>
<path style="stroke:none; fill:#eba66b" d="M 214.934 380.266C 214.578 380.622 215.422 380.578 215.466 380.534C 215.822 380.178 214.978 380.222 214.934 380.266z"/>
<path style="stroke:none; fill:#f6cca3" d="M 284.534 380.266C 284.178 380.622 285.022 380.578 285.066 380.534C 285.422 380.178 284.578 380.222 284.534 380.266z"/>
<path style="stroke:none; fill:#f7d2b0" d="M 80.8 380.8L 81.6 381.6L 80.8 380.8z"/>
<path style="stroke:none; fill:#f6cca3" d="M 144.534 381.066C 144.178 381.422 145.022 381.378 145.066 381.334C 145.422 380.978 144.578 381.022 144.534 381.066z"/>
<path style="stroke:none; fill:#edb484" d="M 218.134 381.066C 217.778 381.422 218.622 381.378 218.666 381.334C 219.022 380.978 218.178 381.022 218.134 381.066z"/>
<path style="stroke:none; fill:#f8dabb" d="M 281.334 381.066C 280.978 381.422 281.822 381.378 281.866 381.334C 282.222 380.978 281.378 381.022 281.334 381.066z"/>
<path style="stroke:none; fill:#edb484" d="M 84.5336 381.866C 84.1776 382.222 85.0224 382.178 85.0664 382.134C 85.4224 381.778 84.5776 381.822 84.5336 381.866z"/>
<path style="stroke:none; fill:#edac78" d="M 138.4 381.6L 138.4 382.4L 140.8 382.4C 139.802 381.852 139.562 381.801 138.4 381.6z"/>
<path style="stroke:none; fill:#edb484" d="M 222.134 381.866C 221.778 382.222 222.622 382.178 222.666 382.134C 223.022 381.778 222.178 381.822 222.134 381.866z"/>
<path style="stroke:none; fill:#f0bb8f" d="M 276 381.6L 276 382.4L 278.4 382.4C 277.402 381.852 277.162 381.801 276 381.6z"/>
<path style="stroke:none; fill:#edb484" d="M 88.5336 382.666C 88.1776 383.022 89.0224 382.978 89.0664 382.934C 89.4224 382.578 88.5776 382.622 88.5336 382.666z"/>
<path style="stroke:none; fill:#eba66b" d="M 132.8 382.4L 132.8 383.2L 135.2 383.2C 134.202 382.652 133.962 382.601 132.8 382.4z"/>
<path style="stroke:none; fill:#f9e0cd" d="M 135.734 382.666C 135.378 383.022 136.222 382.978 136.266 382.934C 136.622 382.578 135.778 382.622 135.734 382.666z"/>
<path style="stroke:none; fill:#edb484" d="M 226.934 382.666C 226.578 383.022 227.422 382.978 227.466 382.934C 227.822 382.578 226.978 382.622 226.934 382.666z"/>
<path style="stroke:none; fill:#f7d2b0" d="M 272.534 382.666C 272.178 383.022 273.022 382.978 273.066 382.934C 273.422 382.578 272.578 382.622 272.534 382.666z"/>
<path style="stroke:none; fill:#f3b985" d="M 93.3336 383.466C 92.9776 383.822 93.8224 383.778 93.8664 383.734C 94.2224 383.378 93.3776 383.422 93.3336 383.466z"/>
<path style="stroke:none; fill:#eba66b" d="M 125.6 383.2L 125.6 384L 128 384C 127.002 383.452 126.762 383.401 125.6 383.2z"/>
<path style="stroke:none; fill:#f7d2b0" d="M 128.534 383.466C 128.178 383.822 129.022 383.778 129.066 383.734C 129.422 383.378 128.578 383.422 128.534 383.466z"/>
<path style="stroke:none; fill:#f6cca3" d="M 232.534 383.466C 232.178 383.822 233.022 383.778 233.066 383.734C 233.422 383.378 232.578 383.422 232.534 383.466z"/>
<path style="stroke:none; fill:#edac78" d="M 234.134 383.466C 233.778 383.822 234.622 383.778 234.666 383.734C 235.022 383.378 234.178 383.422 234.134 383.466M 264 383.2L 264 384L 266.4 384C 265.402 383.452 265.162 383.401 264 383.2z"/>
<path style="stroke:none; fill:#f9e0cd" d="M 266.934 383.466C 266.578 383.822 267.422 383.778 267.466 383.734C 267.822 383.378 266.978 383.422 266.934 383.466z"/>
<path style="stroke:none; fill:#f7d2b0" d="M 99.7336 384.266C 99.3776 384.622 100.222 384.578 100.266 384.534C 100.622 384.178 99.7776 384.222 99.7336 384.266z"/>
<path style="stroke:none; fill:#edac78" d="M 100.8 384L 100.8 384.8L 105.6 384.8C 103.958 384.101 102.602 384.038 100.8 384z"/>
<path style="stroke:none; fill:#e9924e" d="M 105.6 384L 105.6 384.8L 116 384.8C 112.833 383.471 109.01 384 105.6 384z"/>
<path style="stroke:none; fill:#f3b985" d="M 116 384L 116 384.8L 118.4 384.8C 117.402 384.252 117.162 384.201 116 384z"/>
<path style="stroke:none; fill:#f7d2b0" d="M 118.934 384.266C 118.578 384.622 119.422 384.578 119.466 384.534C 119.822 384.178 118.978 384.222 118.934 384.266z"/>
<path style="stroke:none; fill:#f9e8d5" d="M 120.534 384.266C 120.178 384.622 121.022 384.578 121.066 384.534C 121.422 384.178 120.578 384.222 120.534 384.266z"/>
<path style="stroke:none; fill:#f8dabb" d="M 241.334 384.266C 240.978 384.622 241.822 384.578 241.866 384.534C 242.222 384.178 241.378 384.222 241.334 384.266z"/>
<path style="stroke:none; fill:#f3c49c" d="M 242.4 384L 242.4 384.8L 248.8 384.8C 246.71 383.922 244.668 384.006 242.4 384z"/>
<path style="stroke:none; fill:#eba66b" d="M 248.8 384L 248.8 384.8L 253.6 384.8C 251.958 384.101 250.602 384.038 248.8 384z"/>
<path style="stroke:none; fill:#f0bb8f" d="M 253.6 384L 253.6 384.8L 258.4 384.8C 256.758 384.101 255.402 384.038 253.6 384z"/>
</g>
</svg>